<?xml version="1.0" ?><svg id="Capa_1" style="enable-background:new 0 0 512 512;" version="1.1" viewBox="0 0 512 512" xml:space="preserve" xmlns="http://www.w3.org/2000/svg" xmlns:xlink="http://www.w3.org/1999/xlink"><path d="M337.76,24.75C432.01,59.57,502,151.89,502,256c0,132.55-113.45,246-246,246S10,388.55,10,256  S123.45,10,256,10C284.44,10,312.01,15.22,337.76,24.75z" style="fill:#C0E3F0;"/><path d="M256,136c-66.27,0-120,53.73-120,120s53.73,120,120,120s120-53.73,120-120S322.27,136,256,136z" style="fill:#FEB756;"/><path d="M416,146c5.52,0,10-4.48,10-10s-4.48-10-10-10s-10,4.48-10,10S410.48,146,416,146z"/><path d="M136,406c-5.52,0-10,4.48-10,10s4.48,10,10,10s10-4.48,10-10S141.52,406,136,406z"/><path d="M246,176v10h-10c-16.542,0-30,13.458-30,30v20c0,16.542,13.458,30,30,30h10v40h-10c-5.514,0-10-4.486-10-10  c0-5.522-4.478-10-10-10s-10,4.478-10,10c0,16.542,13.458,30,30,30h10v10c0,5.522,4.478,10,10,10s10-4.478,10-10v-10h10  c16.542,0,30-13.458,30-30v-20c0-16.542-13.458-30-30-30h-10v-40h10c5.514,0,10,4.486,10,10c0,5.522,4.478,10,10,10s10-4.478,10-10  c0-16.542-13.458-30-30-30h-10v-10c0-5.522-4.478-10-10-10S246,170.478,246,176z M276,266c5.514,0,10,4.486,10,10v20  c0,5.514-4.486,10-10,10h-10v-40H276z M246,246h-10c-5.514,0-10-4.486-10-10v-20c0-5.514,4.486-10,10-10h10V246z"/><path d="M468.055,275.5c0.618-6.466,0.945-13.015,0.945-19.5c0-5.522-4.478-10-10-10s-10,4.478-10,10c0,3.321-0.097,6.663-0.278,10  H425.7c0.193-3.327,0.3-6.667,0.3-10c0-62.425-34.2-119.737-89.255-149.572c-4.856-2.631-10.926-0.827-13.557,4.027  c-2.632,4.855-0.828,10.925,4.027,13.557C375.812,150.347,406,200.921,406,256c0,6.286-0.392,12.597-1.162,18.756  c-3.563,28.415-15.2,55.119-33.654,77.226c-3.539,4.239-2.972,10.546,1.269,14.085c1.87,1.562,4.143,2.323,6.403,2.323  c2.861,0,5.704-1.223,7.682-3.592c19.007-22.77,31.609-49.858,36.787-78.798h23.22C433.273,366.861,366.869,433.267,286,446.543  v-23.205c5.621-1.004,11.189-2.284,16.678-3.853c5.311-1.519,8.385-7.054,6.867-12.363c-1.519-5.311-7.051-8.378-12.363-6.867  C283.845,404.067,269.989,406,256,406c-82.71,0-150-67.29-150-150c0-5.522-4.478-10-10-10s-10,4.478-10,10  c0,93.738,76.262,170,170,170c3.342,0,6.675-0.119,10-0.314v23.036c-3.336,0.181-6.678,0.278-10,0.278  c-25.251,0-52.325-7.194-82.768-21.993c-4.965-2.413-10.951-0.347-13.365,4.621c-2.415,4.967-0.346,10.951,4.621,13.365  C197.717,461.147,227.65,469,256,469c6.828,0,13.731-0.353,20.521-1.037c0.339-0.018,0.673-0.052,1.002-0.102  c47.885-5.022,93.467-27.001,128.401-61.933c34.695-34.694,56.606-79.893,61.824-127.41c0.209-0.806,0.332-1.646,0.332-2.518  C468.08,275.831,468.063,275.667,468.055,275.5z"/><path d="M463.324,108.527c-30.028-41.482-72.318-74.092-119.322-92.101c-0.922-0.714-1.978-1.286-3.158-1.65  c-0.819-0.253-1.644-0.383-2.462-0.423C311.698,4.837,284,0,256,0c-33.723,0-66.809,6.939-98.339,20.625  C127.365,33.774,99.965,52.48,76.223,76.223s-42.448,51.143-55.598,81.438C6.939,189.191,0,222.277,0,256  s6.939,66.809,20.625,98.339c13.149,30.296,31.855,57.696,55.598,81.438s51.143,42.448,81.438,55.598  C189.191,505.061,222.277,512,256,512s66.809-6.939,98.339-20.625c30.296-13.149,57.696-31.855,81.438-55.598  s42.448-51.143,55.598-81.438C505.061,322.809,512,289.723,512,256C512,203.513,495.168,152.518,463.324,108.527z M256,492  c-117.785,0-218.737-91.623-234.002-206h23.616c4.479,25.899,14.699,52.141,30.549,78.346c1.88,3.107,5.182,4.826,8.566,4.826  c1.762,0,3.548-0.467,5.166-1.445c4.726-2.858,6.239-9.006,3.381-13.732C73.187,320.779,63,287.809,63,256  c0-57.921,29.552-114.72,79.05-151.937c4.414-3.319,5.302-9.589,1.983-14.003c-3.32-4.413-9.587-5.3-14.003-1.983  C75.535,129.053,43,191.827,43,256c0,3.325,0.098,6.659,0.293,10H20.238C20.091,262.68,20,259.349,20,256  C20,128.075,128.075,20,256,20c23.501,0,46.785,3.712,69.353,11.033l-6.996,22.651C297.892,46.667,276.849,43,256,43  c-5.522,0-10,4.478-10,10s4.478,10,10,10c42.182,0,85.481,16.831,121.924,47.393c1.873,1.571,4.153,2.338,6.421,2.338  c2.854,0,5.689-1.216,7.667-3.574c3.549-4.231,2.995-10.539-1.236-14.088c-16.766-14.061-34.908-25.465-53.772-33.984l7.122-23.057  C431.693,74.964,492,163.11,492,256C492,383.925,383.925,492,256,492z"/><path d="M107.777,194.934c1.414,0.691,2.911,1.019,4.385,1.019c3.7,0,7.257-2.062,8.991-5.609C146.204,139.106,199.135,106,256,106  c5.522,0,10-4.478,10-10s-4.478-10-10-10c-32.406,0-63.944,9.194-91.203,26.588c-26.519,16.922-47.823,40.771-61.61,68.97  C100.761,186.52,102.816,192.508,107.777,194.934z"/><path d="M126,256c0,71.683,58.317,130,130,130s130-58.317,130-130s-58.317-130-130-130S126,184.317,126,256z M366,256  c0,60.654-49.346,110-110,110s-110-49.346-110-110s49.346-110,110-110S366,195.346,366,256z"/><g/><g/><g/><g/><g/><g/><g/><g/><g/><g/><g/><g/><g/><g/><g/></svg>